
              <svg id="sw-js-blob-svg" viewBox="0 0 100 100" xmlns="http://www.w3.org/2000/svg" version="1.1">
              <filter id="grainy">
                    <feGaussianBlur stdDeviation="2" />
              </filter>
                    <defs> 
                        <linearGradient id="sw-gradient" x1="0" x2="1" y1="1" y2="0">
                            <stop id="stop1" stop-color="rgba(248, 117, 55, 1)" offset="0%"></stop>
                            <stop id="stop2" stop-color="rgba(176.794, 136.858, 255, 1)" offset="100%"></stop>
                        </linearGradient>
                    </defs>
                <path fill="url(#sw-gradient)" d="M23.9,-35.3C30.8,-32.6,36.3,-25.9,35.8,-18.8C35.2,-11.7,28.7,
                -4.2,25.8,2.5C22.9,9.2,23.7,15.2,21.4,19.5C19.2,23.9,13.9,26.5,8.6,27.1C3.3,27.8,-2,26.4,-9.6,
                26.8C-17.1,27.3,-26.9,29.6,-30.1,26C-33.2,22.5,-29.7,13.1,-31,4.4C-32.3,-4.3,-38.4,-12.3,-35.7,
                -15.5C-33,-18.7,-21.4,-17.1,-14,-19.5C-6.6,-22,-3.3,-28.7,2.6,-32.7C8.4,-36.7,16.9,-38.1,23.
                9,-35.3Z" width="100%" height="100%" transform="translate(50 50)" stroke-width="0" style="transition: all 0.3s ease 0s;"
                filter="url(#grainy)"></path>
              </svg>